<?xml version="1.0" encoding="utf-8"?>
<!-- Generator: Adobe Illustrator 25.2.1, SVG Export Plug-In . SVG Version: 6.00 Build 0)  -->
<svg version="1.1" baseProfile="tiny" id="Lager_1" xmlns="http://www.w3.org/2000/svg" xmlns:xlink="http://www.w3.org/1999/xlink"
	 x="0px" y="0px" viewBox="0 0 300 56.73" overflow="visible" xml:space="preserve">
<g>
	<path fill="#006FCF" d="M33.2,16.14c-0.16,0.41-0.32,0.82-0.47,1.24c-1.03,2.79-2.06,5.58-3.07,8.38
		c-0.12,0.34-0.29,0.48-0.65,0.46c-0.77-0.03-1.54-0.03-2.31,0c-0.37,0.01-0.53-0.12-0.65-0.46c-1.11-3.05-2.23-6.1-3.35-9.14
		c-0.06-0.17-0.15-0.33-0.23-0.49c-0.04,0.01-0.09,0.02-0.13,0.03c0,0.17,0,0.33,0,0.5c0,3.01-0.01,6.02,0.01,9.03
		c0,0.42-0.12,0.56-0.54,0.54c-0.88-0.03-1.76-0.02-2.64,0c-0.31,0.01-0.42-0.11-0.42-0.42c0.01-4.42,0.01-8.84,0-13.26
		c0-0.31,0.12-0.43,0.42-0.43c1.68,0.01,3.36,0.01,5.05,0c0.35,0,0.45,0.21,0.55,0.48c0.94,2.62,1.9,5.23,2.85,7.84
		c0.07,0.19,0.16,0.37,0.29,0.68c0.16-0.4,0.27-0.67,0.37-0.95c0.91-2.53,1.83-5.05,2.73-7.58c0.12-0.34,0.28-0.48,0.65-0.48
		c1.6,0.02,3.2,0.01,4.81,0c0.36,0,0.51,0.1,0.51,0.49c-0.01,4.39-0.01,8.78,0,13.16c0,0.37-0.14,0.46-0.48,0.45
		c-0.88-0.02-1.76-0.03-2.64,0c-0.4,0.01-0.48-0.15-0.48-0.51c0.01-2.99,0.01-5.99,0.01-8.98c0-0.19,0-0.37,0-0.56
		C33.31,16.16,33.25,16.15,33.2,16.14z"/>
	<path fill="#006FCF" d="M114.43,20.65c0.02-0.21,0.06-0.42,0.06-0.63c0-2.42,0-4.84,0-7.26c0-0.64,0-0.64,0.64-0.65
		c0.83,0,1.67,0.01,2.5,0c0.35-0.01,0.48,0.11,0.48,0.47c-0.01,4.39-0.01,8.78,0,13.17c0,0.35-0.1,0.48-0.47,0.47
		c-1.19-0.02-2.37-0.02-3.56,0c-0.35,0.01-0.55-0.12-0.74-0.4c-1.74-2.65-3.5-5.29-5.26-7.93c-0.13-0.2-0.28-0.38-0.54-0.55
		c-0.01,0.18-0.03,0.35-0.03,0.53c0,2.61-0.01,5.22,0.01,7.83c0,0.39-0.1,0.54-0.51,0.52c-0.9-0.03-1.8-0.03-2.69,0
		c-0.39,0.01-0.49-0.13-0.49-0.5c0.01-4.36,0.01-8.72,0-13.07c0-0.44,0.15-0.55,0.56-0.54c1.23,0.02,2.47,0.02,3.7,0
		c0.35,0,0.55,0.12,0.74,0.41c1.7,2.56,3.41,5.12,5.12,7.68c0.11,0.17,0.24,0.32,0.36,0.48C114.36,20.66,114.4,20.66,114.43,20.65z"
		/>
	<path fill="#006FCF" d="M63.88,21.1c1.59,1.73,3.09,3.38,4.67,5.1c-0.8,0-1.51,0-2.22,0c-0.32,0-0.65-0.05-0.96,0.01
		c-1.01,0.18-1.65-0.27-2.26-1.04c-0.98-1.24-2.06-2.41-3.1-3.6c-0.28-0.32-1.27-0.54-1.63-0.33c-0.12,0.07-0.17,0.32-0.17,0.49
		c-0.01,1.31-0.02,2.63,0,3.94c0.01,0.43-0.13,0.55-0.55,0.54c-0.9-0.03-1.79-0.02-2.69,0c-0.32,0.01-0.46-0.08-0.46-0.43
		c0.01-4.4,0.01-8.81,0-13.21c0-0.36,0.13-0.47,0.48-0.47c2.82,0.02,5.64,0,8.46,0.05c2.21,0.04,4.03,1.75,4.26,3.89
		c0.24,2.24-1.07,4.24-3.2,4.86C64.35,20.96,64.19,21.01,63.88,21.1z M60.53,18.2C60.53,18.2,60.53,18.2,60.53,18.2
		c0.64,0,1.28,0.02,1.92-0.01c0.95-0.04,1.56-0.6,1.59-1.41c0.03-0.87-0.52-1.49-1.48-1.54c-1.31-0.07-2.62-0.05-3.93-0.08
		c-0.3-0.01-0.43,0.12-0.42,0.43c0.01,0.72,0.01,1.44,0,2.16c-0.01,0.34,0.14,0.45,0.46,0.44C59.28,18.19,59.91,18.2,60.53,18.2z"/>
	<path fill="#006FCF" d="M73.74,39.44c1.54,1.68,3.03,3.31,4.57,4.99c-0.19,0.03-0.31,0.06-0.43,0.06c-1.2,0-2.4,0.02-3.6-0.01
		c-0.24-0.01-0.53-0.14-0.69-0.31c-1.16-1.3-2.35-2.59-3.42-3.96c-0.54-0.69-1.17-0.67-1.86-0.61c-0.1,0.01-0.25,0.3-0.25,0.46
		c-0.02,1.25-0.01,2.5-0.01,3.75c0,0.7,0,0.7-0.68,0.7c-0.83,0-1.67-0.01-2.5,0.01c-0.36,0.01-0.47-0.13-0.47-0.48
		c0.01-4.39,0.01-8.77,0-13.16c0-0.32,0.09-0.45,0.44-0.45c2.69,0.01,5.38-0.04,8.07,0.03c2.01,0.05,3.74,0.98,4.39,2.91
		c0.81,2.4-0.2,5.01-2.9,5.86C74.21,39.27,74.03,39.34,73.74,39.44z M70.36,33.47c0,0.01,0,0.03,0,0.04c-0.61,0-1.22,0.02-1.83-0.01
		c-0.37-0.02-0.48,0.14-0.48,0.47c0.01,0.7,0.01,1.41,0,2.11c0,0.3,0.13,0.43,0.43,0.43c1.33-0.02,2.66-0.01,3.98-0.06
		c0.79-0.03,1.33-0.53,1.39-1.2c0.08-0.9-0.29-1.5-1.16-1.64C71.93,33.49,71.14,33.52,70.36,33.47z"/>
	<path fill="#006FCF" d="M40,19.17c0-2.18,0.01-4.36-0.01-6.54c0-0.39,0.11-0.53,0.51-0.53c3.64,0.01,7.27,0.01,10.91,0
		c0.38,0,0.55,0.09,0.53,0.51c-0.03,0.67-0.03,1.35,0,2.02c0.02,0.42-0.12,0.55-0.54,0.55c-2.34-0.02-4.68-0.01-7.02-0.01
		c-0.71,0-0.71,0-0.71,0.71c0,0.4,0.02,0.8-0.01,1.2c-0.03,0.41,0.15,0.55,0.53,0.52c0.13-0.01,0.26,0,0.38,0c2.15,0,4.29,0,6.44,0
		c0.72,0,0.72,0,0.72,0.69c0,0.59-0.03,1.19,0.01,1.78c0.03,0.46-0.12,0.61-0.59,0.61c-2.19-0.02-4.39-0.01-6.59-0.01
		c-1.13,0-0.88,0.04-0.9,0.91c-0.01,0.34,0.02,0.67-0.01,1.01c-0.03,0.4,0.12,0.53,0.52,0.52c2.34-0.01,4.68-0.01,7.02-0.01
		c0.73,0,0.73,0,0.73,0.72c0,0.66-0.01,1.31,0.01,1.97c0.01,0.32-0.11,0.41-0.42,0.41c-3.7-0.01-7.4-0.01-11.1,0
		c-0.41,0-0.43-0.2-0.42-0.51C40.01,23.53,40,21.35,40,19.17z"/>
	<path fill="#006FCF" d="M79.72,37.47c0-2.16,0.01-4.32-0.01-6.49c0-0.42,0.09-0.58,0.55-0.58c3.59,0.02,7.18,0.02,10.77,0
		c0.48,0,0.61,0.16,0.59,0.61c-0.03,0.67-0.02,1.35,0,2.02c0.01,0.38-0.13,0.49-0.51,0.49c-2.39-0.01-4.77,0-7.16-0.02
		c-0.45,0-0.59,0.14-0.56,0.57c0.03,0.45,0.03,0.9,0,1.34c-0.03,0.39,0.13,0.48,0.49,0.48c2.26-0.01,4.52-0.01,6.78-0.01
		c0.74,0,0.74,0,0.74,0.76c0,0.61-0.02,1.22,0.01,1.83c0.02,0.4-0.12,0.52-0.52,0.52c-2.29-0.02-4.58,0-6.87-0.02
		c-0.47,0-0.68,0.11-0.63,0.61c0.04,0.4,0.01,0.8,0.01,1.2c0,0.62,0,0.62,0.65,0.63c1.01,0,2.02,0,3.03,0
		c1.33,0,2.66,0.01,3.99-0.01c0.42-0.01,0.57,0.13,0.56,0.55c-0.03,0.69-0.02,1.38,0,2.07c0.01,0.32-0.11,0.46-0.45,0.46
		c-3.67-0.01-7.34-0.01-11.01,0c-0.38,0-0.45-0.16-0.45-0.49C79.72,41.83,79.72,39.65,79.72,37.47z"/>
	<path fill="#006FCF" d="M22.42,35.9c0.36,0,0.67,0,0.97,0c2.18,0,4.36,0.01,6.54-0.01c0.37,0,0.52,0.09,0.5,0.48
		c-0.03,0.7-0.03,1.41,0,2.11c0.02,0.4-0.12,0.52-0.52,0.52c-2.29-0.02-4.58,0-6.87-0.02c-0.47,0-0.67,0.11-0.62,0.61
		c0.04,0.43,0.04,0.87,0,1.3c-0.04,0.45,0.16,0.54,0.56,0.54c0.93-0.02,1.86,0,2.79,0c1.44,0,2.88,0.01,4.32-0.01
		c0.43-0.01,0.56,0.14,0.54,0.56c-0.03,0.69-0.02,1.38,0,2.07c0.01,0.32-0.1,0.46-0.44,0.46c-3.67-0.01-7.34-0.01-11,0
		c-0.34,0-0.44-0.13-0.44-0.45c0.01-4.4,0.01-8.81,0-13.21c0-0.3,0.09-0.42,0.41-0.42c3.68,0.01,7.37,0.01,11.05,0
		c0.32,0,0.42,0.12,0.41,0.42c-0.01,0.74-0.02,1.47,0,2.21c0.02,0.4-0.15,0.48-0.51,0.48c-2.37-0.01-4.74,0.01-7.11-0.02
		c-0.46,0-0.62,0.13-0.59,0.59C22.45,34.67,22.42,35.24,22.42,35.9z"/>
	<path fill="#006FCF" d="M0.56,26.2c0.74-1.67,1.43-3.24,2.12-4.8c1.3-2.94,2.6-5.88,3.89-8.83c0.15-0.35,0.34-0.48,0.72-0.47
		c1.3,0.02,2.6,0.01,3.89,0c0.29,0,0.46,0.08,0.59,0.37c1.97,4.48,3.95,8.96,5.93,13.44c0.03,0.07,0.04,0.15,0.09,0.3
		c-0.53,0-1.02,0-1.51,0c-0.72,0-1.44-0.01-2.16,0.01c-0.3,0.01-0.47-0.09-0.58-0.38c-0.27-0.68-0.59-1.35-0.85-2.04
		c-0.13-0.35-0.32-0.49-0.7-0.48c-1.91,0.02-3.81,0.02-5.72,0c-0.37,0-0.55,0.13-0.67,0.46c-0.27,0.7-0.56,1.4-0.87,2.08
		c-0.06,0.14-0.22,0.33-0.34,0.33C3.14,26.21,1.89,26.2,0.56,26.2z M11.22,20.28c-0.69-1.64-1.35-3.21-2.01-4.78
		c-0.06,0.01-0.11,0.01-0.17,0.02c-0.66,1.56-1.31,3.13-1.99,4.76C8.48,20.28,9.79,20.28,11.22,20.28z"/>
	<path fill="#006FCF" d="M85.76,26.12c0.65-1.47,1.28-2.9,1.91-4.33c1.31-2.97,2.64-5.93,3.92-8.92c0.24-0.56,0.52-0.81,1.16-0.78
		c1.18,0.06,2.37,0.02,3.55,0.01c0.3,0,0.5,0.07,0.63,0.38c1.97,4.48,3.95,8.96,5.92,13.44c0.03,0.07,0.05,0.14,0.09,0.29
		c-0.92,0-1.8-0.09-2.66,0.02c-1.11,0.14-1.72-0.22-1.99-1.32c-0.13-0.53-0.32-1.22-0.71-1.47c-0.42-0.27-1.11-0.11-1.68-0.11
		c-1.49-0.01-2.98,0.01-4.47-0.01c-0.36,0-0.55,0.11-0.68,0.45c-0.27,0.7-0.55,1.4-0.87,2.08c-0.07,0.15-0.28,0.34-0.43,0.35
		c-1.17,0.03-2.34,0.01-3.51,0.01C85.91,26.2,85.87,26.16,85.76,26.12z M94.39,15.52c-0.06,0-0.12-0.01-0.18-0.01
		c-0.66,1.57-1.31,3.14-1.99,4.75c1.43,0,2.74,0,4.15,0C95.69,18.63,95.04,17.08,94.39,15.52z"/>
	<path fill="#006FCF" d="M120.07,30.42c-0.48,1.04-0.9,1.98-1.36,2.91c-0.06,0.11-0.32,0.18-0.49,0.18
		c-1.92,0.01-3.85,0.01-5.77,0.01c-0.56,0-1.06,0.16-1.33,0.69c-0.41,0.79,0.18,1.67,1.13,1.69c1.14,0.02,2.28-0.05,3.41,0.03
		c0.82,0.05,1.66,0.18,2.43,0.44c1.2,0.4,1.92,1.3,2.16,2.54c0.35,1.77-0.01,3.34-1.45,4.55c-0.77,0.65-1.69,1-2.69,1.02
		c-2.63,0.04-5.25,0.02-7.88,0.04c-0.36,0-0.47-0.13-0.46-0.48c0.02-0.64,0.01-1.28,0.01-1.92c0-0.67,0-0.67,0.65-0.67
		c2.15,0,4.29,0,6.44,0c0.29,0,0.58-0.01,0.86-0.06c0.55-0.09,0.95-0.55,0.98-1.09c0.03-0.53-0.29-1-0.82-1.17
		c-0.24-0.07-0.5-0.11-0.75-0.11c-1.25-0.01-2.5,0.04-3.75-0.02c-1.2-0.06-2.27-0.45-3.11-1.39c-1.6-1.79-1.3-5.53,1.59-6.68
		c0.76-0.3,1.61-0.46,2.42-0.48c2.4-0.06,4.81-0.02,7.21-0.02C119.66,30.42,119.8,30.42,120.07,30.42z"/>
	<path fill="#006FCF" d="M106.09,30.42c-0.33,0.73-0.7,1.36-0.91,2.03c-0.27,0.88-0.77,1.14-1.68,1.09
		c-1.68-0.09-3.36-0.03-5.04-0.02c-0.77,0-1.31,0.39-1.4,0.98c-0.12,0.78,0.41,1.39,1.26,1.4c1.14,0.01,2.28-0.04,3.41,0.02
		c0.74,0.04,1.51,0.12,2.21,0.35c1.35,0.44,2.18,1.43,2.39,2.86c0.27,1.84-0.26,3.65-2,4.68c-0.71,0.42-1.49,0.67-2.32,0.68
		c-2.56,0.02-5.13,0.01-7.69,0.03c-0.37,0-0.52-0.12-0.51-0.5c0.02-0.64,0-1.28,0.01-1.92c0-0.64,0.01-0.65,0.64-0.65
		c2.13,0,4.26,0,6.39,0c0.26,0,0.51-0.02,0.77-0.05c0.66-0.08,1.05-0.43,1.09-1c0.06-0.69-0.25-1.13-0.93-1.3
		c-0.21-0.05-0.44-0.07-0.66-0.08c-1.23-0.01-2.47,0.03-3.7-0.02c-1.13-0.05-2.16-0.42-2.98-1.25c-1.73-1.74-1.61-5.93,1.97-7.02
		c0.63-0.19,1.32-0.28,1.98-0.29c2.39-0.03,4.77-0.01,7.16-0.01C105.69,30.42,105.85,30.42,106.09,30.42z"/>
	<path fill="#006FCF" d="M48.62,44.5c-1.1,0-2.06-0.08-3.01,0.02c-1.22,0.12-2.11-0.2-2.83-1.26c-0.66-0.97-1.52-1.81-2.3-2.71
		c-0.15-0.17-0.3-0.32-0.51-0.54c-0.33,0.37-0.64,0.7-0.94,1.05c-0.89,1.03-1.77,2.07-2.66,3.1c-0.13,0.15-0.32,0.33-0.49,0.33
		c-1.44,0.03-2.88,0.02-4.43,0.02c0.58-0.66,1.09-1.24,1.6-1.82c1.45-1.64,2.9-3.29,4.37-4.92c0.25-0.28,0.23-0.45,0-0.72
		c-1.87-2.09-3.73-4.19-5.59-6.28c-0.07-0.08-0.14-0.17-0.26-0.33c0.83,0,1.57,0,2.32,0c0.61,0,1.22,0.03,1.83-0.01
		c0.43-0.03,0.71,0.14,0.98,0.46c1.01,1.2,2.04,2.38,3.07,3.57c0.07,0.08,0.16,0.15,0.3,0.27c0.39-0.44,0.77-0.86,1.14-1.29
		c0.79-0.91,1.56-1.82,2.36-2.72c0.12-0.14,0.34-0.26,0.51-0.27c1.39-0.02,2.79-0.01,4.29-0.01c-0.2,0.25-0.35,0.44-0.51,0.62
		c-1.72,1.94-3.44,3.89-5.18,5.81c-0.31,0.35-0.33,0.56-0.01,0.91c1.83,2.04,3.64,4.1,5.45,6.15C48.26,44.06,48.39,44.22,48.62,44.5
		z"/>
	<path fill="#006FCF" d="M53.87,30.42c1.33,0,2.66-0.05,3.99,0.01c1.91,0.08,3.51,0.8,4.33,2.65c1.28,2.9-0.19,6.58-4.26,6.77
		c-1.45,0.07-2.91,0.03-4.37,0.01C53.11,39.85,52.99,40,53,40.43c0.03,1.18-0.01,2.37,0.02,3.55c0.01,0.41-0.14,0.52-0.53,0.51
		c-0.9-0.02-1.79-0.02-2.69,0c-0.35,0.01-0.48-0.1-0.48-0.46c0.01-4.39,0.01-8.77,0-13.16c0-0.36,0.11-0.47,0.47-0.47
		C51.15,30.43,52.51,30.42,53.87,30.42C53.87,30.42,53.87,30.42,53.87,30.42z M55.36,36.76c0.62,0,1.25,0,1.87,0
		c1.03-0.01,1.69-0.61,1.71-1.55c0.02-0.96-0.62-1.66-1.64-1.69c-1.31-0.03-2.62-0.01-3.93-0.01c-0.27,0-0.37,0.1-0.37,0.37
		c0.01,0.83,0.01,1.66,0,2.49c0,0.29,0.1,0.4,0.39,0.39C54.05,36.75,54.7,36.76,55.36,36.76z"/>
	<path fill="#006FCF" d="M85.25,23.1c-0.49,1.03-0.93,1.97-1.39,2.9c-0.05,0.09-0.19,0.19-0.29,0.19c-1.85,0.07-3.65-0.08-5.24-1.18
		c-1.51-1.04-2.27-2.54-2.54-4.29c-0.26-1.62-0.17-3.23,0.47-4.76c0.89-2.13,2.54-3.41,4.79-3.68c1.93-0.23,3.9-0.14,5.85-0.16
		c0.11,0,0.31,0.22,0.31,0.35c0.03,0.82,0.01,1.63,0.02,2.45c0.01,0.37-0.23,0.36-0.48,0.36c-1.04,0-2.08-0.01-3.13,0
		c-0.85,0.01-1.69,0.03-2.48,0.42c-1.16,0.58-1.64,1.58-1.77,2.78c-0.1,0.91-0.04,1.83,0.35,2.68c0.63,1.39,1.83,1.84,3.24,1.91
		C83.68,23.13,84.4,23.1,85.25,23.1z"/>
	<path fill="#006FCF" d="M69.89,19.15c0-2.13,0-4.26,0-6.39c0-0.65,0-0.65,0.67-0.66c0.82,0,1.63,0.01,2.45,0
		c0.36-0.01,0.51,0.11,0.51,0.49c-0.01,4.39-0.01,8.78,0,13.16c0,0.37-0.15,0.46-0.49,0.45c-0.88-0.02-1.76-0.03-2.64,0
		c-0.42,0.01-0.51-0.14-0.51-0.53C69.89,23.51,69.89,21.33,69.89,19.15z"/>
</g>
<g>
	<path fill="#FFFFFF" d="M205.17,0.98c0,5.41,0,10.83,0,16.28c-0.65,0.14-1.29,0.24-1.92,0.41c-4.96,1.3-8.42,6.04-8.11,11.08
		c0.33,5.29,4.24,9.57,9.4,10.27c0.4,0.05,0.69,0.08,0.68,0.61c-0.02,5.22-0.01,10.43-0.02,15.65c0,0.05-0.03,0.1-0.08,0.3
		c-9.25-0.58-16.77-4.45-21.81-12.27c-6.29-9.75-6.34-19.88-0.3-29.79C188.71,4.19,198.8,0.79,205.17,0.98z"/>
	<path fill="#FFFFFF" d="M254.57,48.4c0-0.81,0-1.52,0-2.23c0-0.68,0-1.36,0-2.1c0.97,0,1.85,0,2.77,0c0,3.89,0,7.77,0,11.76
		c-1.05-0.18-2.1,0.35-3.11-0.44c-2,1.1-3.83,0.88-5.12-0.71c-1.31-1.62-1.3-4.2,0.02-5.78C250.45,47.32,252.23,47.13,254.57,48.4z
		 M252.72,53.59c0.99,0.05,1.84-0.73,1.88-1.71c0.03-0.97-0.71-1.8-1.66-1.86c-0.97-0.06-1.79,0.67-1.86,1.64
		C251,52.69,251.73,53.54,252.72,53.59z"/>
	<path fill="#FFFFFF" d="M209.48,30.21c0,1.12,0.02,2.19-0.02,3.25c-0.01,0.16-0.25,0.37-0.44,0.44c-2.54,1.02-5.44,0.22-7.09-1.94
		c-1.74-2.28-1.77-5.51-0.08-7.71c1.7-2.21,4.59-3.03,7.14-1.98c0.21,0.08,0.46,0.37,0.47,0.58c0.05,1.02,0.02,2.04,0.02,3.22
		c-0.97-0.9-1.97-1.52-3.19-1.13c-0.67,0.21-1.36,0.62-1.82,1.13c-1.04,1.16-0.89,3.12,0.19,4.27
		C205.87,31.63,207.34,31.61,209.48,30.21z"/>
	<path fill="#FFFFFF" d="M226.66,12.49c-0.92,0-1.81,0-2.8,0c0-1.24,0-2.46,0-3.69c0-0.37,0.01-0.74-0.04-1.1
		c-0.09-0.65-0.45-1.06-1.14-1.1c-0.68-0.04-1.2,0.23-1.39,0.91c-0.1,0.37-0.11,0.78-0.12,1.17c-0.01,1.26-0.01,2.52-0.01,3.82
		c-0.95,0-1.84,0-2.77,0c0-3.92,0-7.8,0-11.75c0.9,0,1.8,0,2.76,0c0,1.5,0,2.96,0,4.61c0.89-0.86,1.84-1.19,2.94-1.04
		c1.54,0.21,2.45,1,2.54,2.54C226.74,8.71,226.66,10.58,226.66,12.49z"/>
	<path fill="#FFFFFF" d="M219.93,25.97c0,2.66,0,5.28,0,7.97c-0.89,0-1.77,0-2.69,0c-0.03-0.17-0.07-0.36-0.1-0.51
		c-2.95,1.62-5.09,0.91-6.19-2.26c-0.61-1.76,0.15-3.76,1.51-4.75c1.39-1.01,2.92-0.98,4.66,0.12c0.05-0.2,0.09-0.39,0.14-0.58
		C218.16,25.97,219.02,25.97,219.93,25.97z M217.24,30c0.01-0.99-0.81-1.86-1.77-1.85c-0.93,0.01-1.75,0.83-1.75,1.78
		c-0.01,0.99,0.73,1.79,1.69,1.82C216.42,31.79,217.23,31.01,217.24,30z"/>
	<path fill="#FFFFFF" d="M265.12,48.31c0.32-0.65,0.65-0.71,2.87-0.5c0,2.63,0,5.27,0,8.03c-0.95-0.26-2.05,0.48-2.93-0.53
		c-1.83,1.19-3.72,1.03-5.08-0.49c-1.42-1.59-1.47-4.25-0.1-5.9C261.17,47.33,263.12,47.11,265.12,48.31z M263.54,53.6
		c0.97,0.02,1.76-0.74,1.8-1.71c0.04-1-0.75-1.85-1.73-1.86c-0.99-0.02-1.75,0.72-1.78,1.71C261.8,52.79,262.53,53.58,263.54,53.6z"
		/>
	<path fill="#FFFFFF" d="M285.46,56.13c-3.94,0.01-6.15-2.92-4.94-5.92c0.74-1.81,2.23-2.61,4.09-2.71c1.97-0.1,3.67,0.5,4.62,2.37
		c0.81,1.59,0.65,3.17-0.45,4.59C287.83,55.7,286.46,56.11,285.46,56.13z M284.98,53.6c0.99-0.01,1.77-0.83,1.75-1.84
		c-0.01-0.95-0.81-1.78-1.73-1.79c-0.96-0.02-1.79,0.83-1.79,1.81C283.2,52.78,284,53.6,284.98,53.6z"/>
	<path fill="#FFFFFF" d="M222.18,56.13c-4.16-0.01-6.35-3.44-4.67-6.42c1.22-2.15,4.41-2.92,6.76-1.63
		c2.08,1.14,2.83,3.71,1.67,5.79C225,55.55,223.45,56.11,222.18,56.13z M221.72,53.6c0.96,0,1.81-0.86,1.79-1.83
		c-0.02-0.93-0.85-1.78-1.76-1.8c-0.94-0.02-1.82,0.85-1.82,1.81C219.94,52.78,220.74,53.6,221.72,53.6z"/>
	<path fill="#FFFFFF" d="M209.33,44.06c2.19,0,4.36,0,6.56,0c0,0.86,0,1.67,0,2.56c-1.18,0-2.32,0-3.52,0c0,0.67,0,1.26,0,1.92
		c1.06,0,2.11,0,3.19,0c0,0.91,0,1.74,0,2.64c-1.06,0-2.1,0-3.23,0c0,1.56,0,3.04,0,4.58c-1.04,0-1.99,0-3,0
		C209.33,51.87,209.33,47.98,209.33,44.06z"/>
	<path fill="#FFFFFF" d="M247.84,30.46c-1.93,0-3.82,0-5.7,0c-0.06,1.42,1.21,2.35,2.27,1.6c0.8-0.58,1.59-0.52,2.44-0.54
		c0.28,0,0.56,0,0.86,0c-0.39,2.05-2.44,3.15-4.92,2.72c-2.48-0.43-3.91-2.46-3.53-5.02c0.36-2.41,2.34-3.88,4.83-3.57
		C246.68,25.97,248.1,27.75,247.84,30.46z M245.18,28.73c-0.31-0.88-0.82-1.27-1.61-1.21c-0.72,0.06-1.21,0.4-1.36,1.21
		C243.21,28.73,244.17,28.73,245.18,28.73z"/>
	<path fill="#FFFFFF" d="M235.87,10.07c-0.49,2.11-2.52,3.15-5.07,2.68c-2.36-0.43-3.77-2.51-3.37-4.99
		c0.4-2.54,2.28-3.86,5.06-3.54c2.34,0.27,3.73,2.11,3.51,4.77c-0.96,0-1.92,0-2.89,0c-0.95,0-1.89,0-2.86,0
		c-0.02,0.72,0.12,1.37,0.75,1.57c0.53,0.16,1.31,0.22,1.7-0.06c0.56-0.41,1.09-0.42,1.68-0.43
		C234.86,10.06,235.33,10.07,235.87,10.07z M233.37,7.27c-0.26-0.84-0.78-1.23-1.58-1.21c-0.75,0.02-1.29,0.35-1.44,1.21
		C231.37,7.27,232.34,7.27,233.37,7.27z"/>
	<path fill="#FFFFFF" d="M224.66,33.97c-0.97,0-1.83,0-2.76,0c0-2.66,0-5.3,0-7.98c0.9,0,1.79,0,2.71,0
		c0.03,0.22,0.06,0.45,0.07,0.55c0.75-0.25,1.5-0.67,2.28-0.74c1.95-0.19,3.21,1.04,3.22,2.99c0.01,1.7,0,3.41,0,5.16
		c-0.96,0-1.84,0-2.82,0c0-1.47,0.02-2.94-0.01-4.4c-0.02-1.13-0.76-1.71-1.75-1.4c-0.76,0.24-0.93,0.87-0.93,1.57
		C224.65,31.1,224.66,32.49,224.66,33.97z"/>
	<path fill="#FFFFFF" d="M290.74,47.79c0.93,0,1.82,0,2.72,0c0.03,0.25,0.05,0.48,0.07,0.66c0.61-0.27,1.21-0.66,1.86-0.79
		c2.07-0.42,3.6,0.82,3.65,2.93c0.04,1.71,0.01,3.41,0.01,5.17c-0.94,0-1.82,0-2.82,0c0-1.01,0-2.03,0-3.05c0-0.53,0-1.05-0.04-1.58
		c-0.05-0.68-0.39-1.14-1.11-1.22c-0.75-0.08-1.31,0.27-1.47,1.01c-0.1,0.48-0.09,0.99-0.09,1.49c-0.01,1.1,0,2.2,0,3.35
		c-0.95,0-1.83,0-2.77,0C290.74,53.13,290.74,50.51,290.74,47.79z"/>
	<path fill="#FFFFFF" d="M246.54,55.78c-0.94,0-1.8,0-2.76,0c0-1.45,0.01-2.86,0-4.28c-0.01-0.98-0.38-1.49-1.09-1.58
		c-0.91-0.11-1.55,0.44-1.58,1.43c-0.03,1.16-0.01,2.32-0.01,3.48c0,0.29,0,0.57,0,0.92c-0.94,0-1.82,0-2.76,0c0-2.62,0-5.26,0-7.95
		c0.89,0,1.78,0,2.7,0c0.04,0.24,0.07,0.46,0.12,0.79c0.97-0.95,2.1-1.18,3.34-0.88c1.13,0.27,1.98,1.09,2.02,2.24
		C246.59,51.86,246.54,53.78,246.54,55.78z"/>
	<path fill="#FFFFFF" d="M228.06,47.79c0.95,0,1.81,0,2.77,0c0,1.53-0.01,3.02,0,4.51c0.01,0.98,0.42,1.42,1.28,1.45
		c0.99,0.04,1.46-0.37,1.48-1.4c0.03-1.21,0.01-2.42,0.01-3.63c0-0.29,0-0.57,0-0.91c0.95,0,1.83,0,2.75,0
		c0,1.99,0.08,3.96-0.03,5.93c-0.05,1.01-0.8,1.71-1.77,2.04c-1.51,0.52-3.05,0.52-4.58,0.03c-1.1-0.36-1.84-1.13-1.89-2.29
		C228,51.62,228.06,49.73,228.06,47.79z"/>
	<path fill="#FFFFFF" d="M214.85,3.29c0,3.13,0,6.13,0,9.19c-1,0-1.96,0-3.01,0c0-3,0-6.01,0-9.12c-0.86,0-1.63,0-2.46,0
		c0-0.92,0-1.75,0-2.62c2.65,0,5.27,0,7.93,0c0,0.85,0,1.66,0,2.55C216.52,3.29,215.74,3.29,214.85,3.29z"/>
	<path fill="#FFFFFF" d="M270.23,55.77c0-1.89,0-3.7,0-5.52c-0.3-0.05-0.56-0.09-0.86-0.13c0-0.76,0-1.51,0-2.3
		c0.27-0.03,0.53-0.07,0.85-0.11c0-0.74,0-1.49,0-2.3c0.95,0,1.84,0,2.81,0c0,0.73,0,1.48,0,2.29c0.57,0.04,1.05,0.07,1.57,0.1
		c0,0.77,0,1.5,0,2.32c-0.47,0.03-0.95,0.06-1.53,0.1c0,1.84,0,3.67,0,5.54C272.1,55.77,271.22,55.77,270.23,55.77z"/>
	<path fill="#FFFFFF" d="M237.98,28.5c-1.12-0.5-2.16-0.72-2.98,0.34c-0.53,0.69-0.49,1.65,0.05,2.35c0.58,0.77,1.39,0.85,2.93,0.28
		c0,0.67,0.05,1.33-0.03,1.97c-0.03,0.22-0.34,0.49-0.58,0.57c-1.64,0.58-3.51,0.08-4.61-1.18c-1.13-1.29-1.38-3.23-0.6-4.8
		c0.77-1.56,2.36-2.45,4.14-2.34c0.03,0,0.05,0.01,0.08,0.01c1.56,0.12,1.61,0.17,1.61,1.7C237.98,27.75,237.98,28.09,237.98,28.5z"
		/>
	<path fill="#FFFFFF" d="M249.48,25.96c0.92,0,1.78,0,2.68,0c0.03,0.33,0.06,0.63,0.11,1.07c0.84-0.92,1.77-1.43,3.02-1.24
		c0,0.88,0,1.75,0,2.66c-0.18-0.05-0.36-0.09-0.53-0.13c-1.39-0.3-2.34,0.3-2.45,1.7c-0.1,1.28-0.02,2.57-0.02,3.91
		c-1.01,0-1.89,0-2.81,0C249.48,31.28,249.48,28.64,249.48,25.96z"/>
	<path fill="#FFFFFF" d="M278.61,55.78c-0.91,0-1.77,0-2.69,0c0-2.66,0-5.29,0-7.98c0.9,0,1.77,0,2.69,0
		C278.61,50.46,278.61,53.07,278.61,55.78z"/>
	<path fill="#FFFFFF" d="M277.27,43.11c0.9,0,1.55,0.68,1.54,1.62c-0.01,0.93-0.68,1.6-1.58,1.59c-0.85-0.01-1.59-0.76-1.58-1.63
		C275.66,43.81,276.38,43.11,277.27,43.11z"/>
</g>
<g>
	<path fill="#FFFFFF" d="M147.94,34.33h-3.15l4.17-6.6l-3.96-6.35h3.23l2.31,4.22l2.37-4.22h3.13l-3.96,6.25l4.21,6.71H153
		l-2.46-4.42L147.94,34.33z"/>
</g>
</svg>
